<svg xmlns="http://www.w3.org/2000/svg" class="svg-navigation" viewBox="0 0 1000 1000">
	<g transform="translate(0.000000,208.000000) scale(0.100000,-0.100000)">
		<path d="M2536.8,446C1199.2-225,100-785.7,100-798.9c0-13.2,1103.6-573.9,2450-1249.3L5000-3271l2450,1222.8c1346.4,675.4,2450,1236,2450,1249.3c0,22.1-4882.3,2476.5-4913.2,2467.7C4982.3,1668.8,3878.7,1117,2536.8,446z"/>
		<path d="M422.2-2732.4C245.7-2820.7,100-2904.6,100-2917.8c0-13.2,1103.6-573.9,2450-1249.3l2450-1222.8l2450,1222.8c1346.4,675.4,2450,1236,2450,1249.3c0,13.2-150.1,97.1-331.1,189.8l-331.1,163.3L7118.9-3624.1L5000-4683.6L2881.1-3624.1c-1165.4,582.7-2123.3,1059.5-2127.8,1055C744.5-2569.1,594.4-2644.1,422.2-2732.4z"/>
		<path d="M422.2-4851.3C245.7-4939.6,100-5023.5,100-5036.7c0-13.2,1103.6-573.9,2450-1249.3l2450-1222.8L7450-6286c1346.4,675.4,2450,1236,2450,1249.3c0,13.2-150.1,97.1-331.1,189.8l-331.1,163.3L7118.9-5743L5000-6802.5L2881.1-5743C1715.7-5160.3,757.7-4683.6,753.3-4688C744.5-4688,594.4-4763,422.2-4851.3z"/>
	</g>
</svg>