<svg xmlns="http://www.w3.org/2000/svg" class="svg-navigation" viewBox="0 0 1000 1000">
	<g transform="translate(0.000000,511.000000) scale(0.100000,-0.100000)">
		<path d="M100,110v-4900h4900h4900v229.7v229.7H5229.7H559.4V339.7V5010H329.7H100V110z"/>
		<path d="M8343.2,1934.7v-446.6h155.7h158.2l-17.9-222c-35.7-490-313.9-3225.8-329.2-3238.6c-43.4-43.4-107.2,48.5-349.6,484.9l-260.3,477.2l2.6,482.3l5.1,484.9h-459.4h-461.9v-311.4l-2.5-313.9l-342-247.6L6097.4-1166h-239.9h-237.3l-308.8,900.9l-306.3,898.3l99.5,7.7l99.5,7.7v459.4v456.8h-459.4h-459.4v-459.4V645.9h130.2c94.4,0,127.6-10.2,119.9-30.6c-7.7-17.9-160.8-569.1-339.4-1225l-329.2-1194.4h-229.7l-232.2,2.5l-403.2,372.6L2601-1053.7v275.6v275.6h-446.6h-446.6l-2.6-145.5c-2.6-81.7-5.1-273.1-7.7-428.7l-2.6-280.7l-278.2-456.8l-278.2-456.8l61.3-45.9c33.2-25.5,74-48.5,89.3-48.5c12.8,0,153.1,209.3,306.3,467l280.7,464.5l362.4,7.6c298.6,5.1,362.4,12.8,362.4,43.4c0,20.4,7.7,38.3,15.3,38.3c7.7,0,181.2-155.7,382.8-347.1l367.5-349.6v-339.4v-342H3826h459.4v459.4v459.4h-102.1c-56.2,0-102.1,7.7-102.1,20.4c0,35.7,661,2409.2,673.7,2424.5c7.7,7.7,23,5.1,30.6-2.5c12.8-12.8,622.7-1773.7,622.7-1796.7c0-5.1-45.9-7.6-102.1-7.6h-102.1v-459.4v-459.4h459.4h459.4v352.2l2.5,349.6l303.7,216.9c165.9,119.9,313.9,216.9,329.2,214.4c15.3-2.6,176.1-5.1,357.3-5.1l329.2-5.1l262.9-477.2c145.5-262.9,268-492.5,273.1-510.4s-10.2-33.2-30.6-33.2c-38.3,0-40.8-51-35.7-451.7l7.6-454.3l454.3-7.7l451.7-5.1v459.4v459.4H8675c-91.9,0-153.1,10.2-153.1,28.1c0,66.4,334.3,3381.5,344.5,3412.1c7.6,20.4,71.5,30.6,204.2,30.6H9262v446.6v446.6h-459.4h-459.4V1934.7z"/>
	</g>
</svg>