<svg class="svg-navigation" alt="edit" xmlns="http://www.w3.org/2000/svg" viewBox="0 0 1000 1000">
	<g>
		<path d="M10,301.4c0-11.9,7.2-20.9,19.1-20.9c11.9,0,150.5,87.2,170.2,98.5l115.3-63.9V181.4l-175-100.9c-5.4-3.6-9.6-10.2-9.6-16.7c0-7.2,3.6-12.5,9.6-16.7C176,22.6,232.8,9.4,276.3,9.4c147.5,0,267.5,120,267.5,267.5c0,147.5-120,267.5-267.5,267.5c-112.9,0-215-73.5-252.6-179.7C17.2,345.6,10,321.1,10,301.4z M388.6,561.2c78.2-31.1,140.9-93.8,172-172l406.7,406.7c14.3,14.3,22.7,34,22.7,54.3c0,20.3-8.4,40-22.7,53.7L904,968.5c-14.3,13.7-34,22.1-54.3,22.1s-40-8.4-53.7-22.1L388.6,561.2z M773.2,812c0,20.9,17.3,38.2,38.2,38.2c20.9,0,38.2-17.3,38.2-38.2c0-20.9-17.3-38.2-38.2-38.2C790.5,773.8,773.2,791.1,773.2,812z"/>
	</g>
</svg>