<svg xmlns="http://www.w3.org/2000/svg" class="svg-navigation" viewBox="0 0 1000 1000">
<g transform="translate(-20,900) scale(0.8,-0.8)">
<path d="M89 877 c-66 -44 -69 -60 -69 -360 0 -229 2 -274 16 -304 22 -45 56
-67 117 -73 49 -5 49 -5 69 -58 l20 -53 66 3 65 3 17 50 17 50 191 3 191 2 17
-55 18 -55 67 0 66 0 19 53 19 52 51 5 c27 3 62 13 76 22 23 15 58 73 58 96 0
6 16 16 35 22 44 14 49 22 55 90 l5 55 80 3 c87 3 115 19 115 68 0 47 -32 64
-120 64 l-80 0 0 58 c0 48 -4 62 -23 80 -13 12 -33 22 -45 22 -18 0 -22 6 -22
33 0 45 -29 98 -69 124 l-34 23 -477 0 -477 0 -34 -23z m111 -357 l0 -340 -38
0 c-42 0 -77 25 -93 67 -5 13 -9 135 -9 271 0 215 2 251 18 282 19 38 52 60
95 60 l27 0 0 -340z m620 0 l0 -340 -290 0 -290 0 0 340 0 340 290 0 290 0 0
-340z m287 307 l28 -27 3 -253 c2 -138 1 -266 -3 -283 -3 -18 -17 -44 -32 -58
-25 -25 -31 -26 -134 -26 l-109 0 0 341 0 341 110 -4 c104 -3 111 -4 137 -31z
m112 -161 c8 -9 11 -65 9 -177 -3 -161 -3 -164 -25 -167 l-23 -3 0 180 c0 147
3 181 14 181 7 0 19 -6 25 -14z m203 -158 c12 -31 -4 -38 -78 -38 -72 0 -74 1
-74 25 0 24 2 25 74 25 50 0 75 -4 78 -12z m-1062 -377 c0 -5 -4 -20 -9 -33
-8 -21 -14 -24 -46 -20 -35 4 -61 33 -48 55 6 10 103 9 103 -2z m583 2 c3 -5
1 -18 -4 -30 -7 -19 -16 -23 -49 -23 -22 0 -40 3 -40 8 0 4 -3 17 -6 30 -6 21
-3 22 44 22 28 0 53 -3 55 -7z"/>
<path d="M334 699 c-15 -24 19 -29 167 -27 137 3 154 5 157 21 3 16 -10 17
-157 17 -104 0 -162 -4 -167 -11z"/>
<path d="M335 609 c-16 -24 17 -29 166 -27 129 3 154 5 154 18 0 13 -25 15
-157 18 -107 2 -159 -1 -163 -9z"/>
<path d="M339 514 c-23 -27 8 -34 164 -34 126 0 149 2 154 16 10 28 -18 34
-163 34 -117 0 -144 -3 -155 -16z"/>
<path d="M335 419 c-16 -24 17 -29 166 -27 129 3 154 5 154 18 0 13 -25 15
-157 18 -107 2 -159 -1 -163 -9z"/>
<path d="M335 330 c-15 -25 13 -30 166 -30 147 0 160 1 157 18 -3 15 -20 17
-160 20 -99 1 -159 -1 -163 -8z"/>
<path d="M1002 571 c-55 -43 -61 -50 -43 -56 27 -8 26 -12 -6 -60 l-27 -40 43
35 c24 19 53 43 65 52 l21 17 -23 8 -22 9 31 42 c17 23 29 42 27 42 -1 0 -31
-22 -66 -49z"/>
</g>
</svg>