<svg xmlns="http://www.w3.org/2000/svg" class="svg-navigation" viewBox="0, 0, 400,400">
    <g id="svgg"><path id="path0" d="M52.000 48.000 C 37.640 63.868,38.027 64.000,98.958 64.000 C 157.131 64.000,160.800 65.063,168.000 84.000 C 178.841 112.515,221.159 112.515,232.000 84.000 C 239.200 65.063,242.869 64.000,301.042 64.000 C 361.973 64.000,362.360 63.868,348.000 48.000 C 334.622 33.217,323.360 32.000,200.000 32.000 C 76.640 32.000,65.378 33.217,52.000 48.000 M40.000 224.000 L 40.000 368.000 200.000 368.000 L 360.000 368.000 360.000 224.000 L 360.000 80.000 301.924 80.000 C 252.513 80.000,242.358 82.387,233.857 96.000 C 220.426 117.506,179.574 117.506,166.143 96.000 C 157.642 82.387,147.487 80.000,98.076 80.000 L 40.000 80.000 40.000 224.000 M245.484 185.395 C 286.741 224.153,257.923 296.000,201.121 296.000 C 162.879 296.000,136.000 270.046,136.000 233.121 C 136.000 174.957,203.195 145.665,245.484 185.395 M192.000 203.546 C 192.000 214.641,184.358 228.446,174.326 235.472 C 150.214 252.361,165.914 270.435,191.057 254.732 C 208.857 243.616,216.395 184.000,200.000 184.000 C 195.600 184.000,192.000 192.796,192.000 203.546 " stroke="none" fill="#000000" fill-rule="evenodd"></path></g></svg>