<svg class="svg-header" xmlns="http://www.w3.org/2000/svg" viewBox="0 0 1000 1000" fill="white">
<g>
	<g transform="translate(0.000000,511.000000) scale(0.100000,-0.100000)">
		<path d="M527.4,4328.8c-191.9-66-339.9-217.9-395.9-407.9c-42-142-42-633.8,0-713.8c62-118,207.9-138,313.9-42l66,58l10,297.9c6,161.9,20,311.9,28,331.9c32,68,98,84,397.9,94l297.9,10l58,66c96,106,76,251.9-42,313.9C1173.2,4382.7,667.3,4378.7,527.4,4328.8z"/>
		<path d="M8735.1,4336.8c-94-52-124-168-74-277.9c40-88,128-112,407.9-112c263.9,0,347.9-20,381.9-94c8-20,22-170,28-331.9l10-297.9l66-58c74-66,185.9-78,255.9-28c78,54,92,128,84,453.9c-6,287.9-10,313.9-62,419.9c-64,130-180,241.9-311.9,303.9c-80,36-134,42-411.9,46C8853.1,4366.8,8779.1,4360.8,8735.1,4336.8z"/>
		<path d="M1449.1,3019.1l-68-68V1829.4c0-1201.7,0-1207.7,98-1261.7c76-40,178-24,245.9,38l66,58l6,1097.7c4,741.8,0,1119.7-16,1169.7C1735.1,3093.1,1567.1,3137.1,1449.1,3019.1z"/>
		<path d="M2336.9,3055.1c-30-16-64-46-76-68c-12-24-20-437.9-20-1179.7V663.8l58-58c82-82,202-82,283.9,0l58,58v1143.7c0,745.8-8,1155.7-20,1181.7c-26,46-122,98-184,98C2410.9,3085.1,2366.9,3073.1,2336.9,3055.1z"/>
		<path d="M3156.7,3029.1l-66-58V1817.4V663.8l66-58c68-62,170-78,245.9-38c98,54,98,60,98,1261.7v1121.7l-68,68C3342.6,3109.1,3248.6,3113.1,3156.7,3029.1z"/>
		<path d="M4008.4,3019.1l-68-68V1829.4c0-1201.7,0-1207.7,98-1261.7c76-40,178-24,245.9,38l66,58l6,1117.7c6,1185.7,6,1189.7-92,1265.7C4186.4,3111.1,4088.4,3099.1,4008.4,3019.1z"/>
		<path d="M4896.2,3055.1c-30-16-64-46-76-68c-12-24-20-437.9-20-1179.7V663.8l58-58c82-82,202-82,284,0l58,58v1143.7c0,745.8-8,1155.7-20,1181.7c-26,46-122,98-184,98C4970.2,3085.1,4926.2,3073.1,4896.2,3055.1z"/>
		<path d="M5716,3029.1l-66-58V1817.4V663.8l66-58c68-62,170-78,245.9-38c98,54,98,60,98,1261.7v1121.7l-68,68C5901.9,3109.1,5807.9,3113.1,5716,3029.1z"/>
		<path d="M6567.8,3019.1l-68-68V1829.4c0-1201.7,0-1207.7,98-1261.7c100-52,243.9-8,291.9,90c44,98,46,2221.4,0,2309.4C6817.7,3105.1,6677.7,3129.1,6567.8,3019.1z"/>
		<path d="M7455.5,3055.1c-30-16-64-46-76-68c-12-24-20-437.9-20-1179.7V663.8l58-58c82-82,201.9-82,283.9,0l58,58v1143.7c0,745.8-8,1155.7-20,1181.7c-26,46-122,98-184,98C7529.5,3085.1,7485.5,3073.1,7455.5,3055.1z"/>
		<path d="M8275.3,3029.1l-66-58V1817.4V663.8l66-58c68-62,170-78,245.9-38c98,54,98,60,98,1261.7v1121.7l-68,68C8461.2,3109.1,8367.3,3113.1,8275.3,3029.1z"/>
		<path fill="#ff4f4f" d="M229.5,87.9c-68-26-128-118-128-193.9c0-52,16-86,68-138l68-68h571.8h571.9v-1199.7c0-1319.6-2-1289.6,120-1339.6c86-36,194-6,247.9,66c42,56,42,74,48,1265.6l4,1207.7H2021h219.9v-579.8v-581.8l48-48c90-90,213.9-90,303.9,0l48,48v581.8V-312h219.9h219.9v-549.8c0-449.9,6-561.8,30-609.8c72-138,211.9-161.9,321.9-52l68,68v571.8V-312h219.9h219.9v-571.8v-571.8l70-70c64-64,80-70,154-60c52,6,102,30,134,62l52,52l6,579.8l6,579.8h219.9h217.9v-1219.7v-1221.7l48-48c90-90,214-90,303.9,0l48,48v1221.7V-312h219.9H5640v-549.8c0-449.9,6-561.8,30-609.8c72-138,212-161.9,321.9-52l68,68v571.8V-312h219.9h219.9v-571.8v-571.8l68-68c108-108,247.9-84,315.9,52c32,62,36,136,36,615.8V-312h219.9h219.9v-579.8v-581.8l48-48c90-90,213.9-90,303.9,0l48,48v581.8V-312h219.9h219.9v-1189.7c0-1017.7,4-1199.7,30-1249.7c72-138,211.9-161.9,321.9-52l68,68v1211.7V-312H9191h571.9l68,68c110,110,86,249.9-52,321.9c-52,26-627.8,30-4782.7,28C2396.9,105.9,251.5,97.9,229.5,87.9z"/>
		<path fill="#ff4f4f" d="M2336.9-2063.5c-30-16-64-46-76-68c-10-20-20-167.9-20-329.9c0-281.9,2-293.9,48-339.9c90-90,213.9-90,303.9,0c46,46,48,58,48,339.9c0,162-10,309.9-20,331.9c-26,46-122,98-184,98C2410.9-2033.5,2366.9-2045.5,2336.9-2063.5z"/>
		<path fill="#ff4f4f" d="M3156.7-2089.5l-66-58v-303.9v-303.9l66-58c92-84,185.9-80,275.9,10l68,68v283.9v283.9l-68,68C3342.6-2009.5,3248.6-2005.5,3156.7-2089.5z"/>
		<path fill="#ff4f4f" d="M4008.4-2099.5l-68-68v-283.9v-283.9l68-68c90-90,184-94,275.9-10l66,58l6,263.9c8,285.9-6,353.9-92,419.9C4186.4-2007.5,4088.4-2019.5,4008.4-2099.5z"/>
		<path fill="#ff4f4f" d="M5716-2089.5l-66-58l-6-264c-8-285.9,6-353.9,92-419.9c78-64,176-52,255.9,28l68,68v283.9v283.9l-68,68C5901.9-2009.5,5807.9-2005.5,5716-2089.5z"/>
		<path fill="#ff4f4f" d="M6601.7-2059.5c-86-48-100-102-102-399.9v-275.9l70-70c64-64,80-70,151.9-60c166,22,204,113.9,194,471.9l-6,246l-66,58C6771.7-2025.5,6683.7-2013.5,6601.7-2059.5z"/>
		<path fill="#ff4f4f" d="M7455.5-2063.5c-30-16-64-46-76-68c-10-20-20-167.9-20-329.9c0-281.9,2-293.9,48-339.9c90-90,213.9-90,303.9,0c46,46,48,58,48,339.9c0,162-10,309.9-20,331.9c-26,46-122,98-184,98C7529.5-2033.5,7485.5-2045.5,7455.5-2063.5z"/>
		<path d="M189.5-2921.3c-78-54-92-128-84-453.9c6-259.9,12-319.9,50-397.9c60-132,171.9-247.9,301.9-311.9c106-52,132-56,419.9-62c325.9-8,399.9,6,453.9,84c50,70,38,181.9-28,255.9l-58,66l-297.9,10c-161.9,6-311.9,20-331.9,28c-68,32-84,98-94,397.9l-10,297.9l-66,57.9C371.4-2883.3,259.4-2871.3,189.5-2921.3z"/>
		<path d="M9584.9-2915.3c-82-40-106-130-106-403.9c0-391.9-20-411.9-409.9-411.9c-279.9,0-367.9-24-407.9-112c-30-68-28-170,8-219.9c54-78,128-92,453.9-84c287.9,6,313.9,10,419.9,62c130,64,241.9,180,301.9,311.9c38,78,44,138,50,397.9c8,325.9-6,399.9-84,453.9C9762.9-2887.3,9648.9-2883.3,9584.9-2915.3z"/>
	</g>
</g>
</svg>